<svg width="153" height="29" viewBox="0 0 153 29" fill="none" xmlns="http://www.w3.org/2000/svg">
<path d="M9.84676 28.8684C6.12403 28.8684 2.84186 27.9978 0 26.2568L3.23988 20.6372C4.12075 21.3759 5.21478 21.9894 6.52206 22.4774C7.82924 22.9656 9.0226 23.2097 10.1027 23.2097C10.9552 23.2097 11.6514 23.0117 12.1915 22.6159C12.7313 22.2204 13.0012 21.7454 13.0012 21.1913C13.0012 20.268 12.3904 19.5293 11.1682 18.9752L7.16134 17.1547C4.97314 16.1788 3.32498 14.9256 2.21657 13.3956C1.10831 11.8653 0.554412 10.2693 0.554412 8.60709C0.554412 6.2591 1.54896 4.2408 3.53809 2.55252C5.52756 0.864159 8.1845 0.0197792 11.5092 0.0197792C15.1466 0.0197792 18.3865 0.890465 21.2283 2.63166L17.8181 8.09265C15.3455 6.37781 13.1576 5.52043 11.2536 5.52043C10.4864 5.52043 9.88952 5.71818 9.46325 6.11404C9.03689 6.50978 8.82388 6.98473 8.82388 7.53865C8.82388 8.77876 9.56279 9.72836 11.0406 10.3879L14.9193 12.1687C17.0223 13.1185 18.6209 14.3254 19.7148 15.7896C20.8089 17.2538 21.3559 18.7906 21.3559 20.3997C21.3559 22.6951 20.3187 24.6803 18.2444 26.3554C16.1698 28.031 13.3706 28.8684 9.84676 28.8684ZM33.2489 22.7347H45.3122L44.0333 28.275H32.1405H24.7237V0.573915H33.2489H44.4597V6.11404H33.2489V11.6542H42.3284V17.1946H33.2489V22.7347ZM57.4609 22.7347H69.3109L68.0323 28.275H56.1395H48.9357V0.573915H57.4609V22.7347Z" fill="#FAFAFA"/>
<path d="M75.4869 3.38354C77.604 1.12778 80.9503 9.91821e-05 85.5256 9.91821e-05C90.1009 9.91821e-05 93.447 1.12778 95.5644 3.38354C97.6814 5.63926 98.7399 9.32608 98.7399 14.4444C98.7399 19.5625 97.6814 23.2493 95.5644 25.5048C93.447 27.7606 90.1009 28.8884 85.5256 28.8884C80.9503 28.8884 77.604 27.7606 75.4869 25.5048C73.3696 23.2493 72.311 19.5625 72.311 14.4444C72.311 9.32608 73.3696 5.63926 75.4869 3.38354Z" fill="#FAFAFA"/>
<path d="M123.095 21.2308C123.436 22.1804 124.204 22.4576 125.397 22.0619V27.9979C124.346 28.3936 123.252 28.5913 122.115 28.5913C120.694 28.5913 119.444 28.2484 118.364 27.5626C117.284 26.8765 116.517 25.8476 116.062 24.4757L114.783 20.5976C114.385 19.3842 113.902 18.5926 113.334 18.2231C112.851 17.9068 112.14 17.7354 111.203 17.7089L111.714 12.1685C112.396 12.3533 112.95 12.4456 113.377 12.4456C114.229 12.4456 114.89 12.1555 115.359 11.5751C115.828 10.9947 116.062 10.2692 116.062 9.39848C116.062 8.44883 115.75 7.6178 115.124 6.90552C114.499 6.19333 113.618 5.83695 112.482 5.83695H110.265V27.9979H101.74V0.296818H113.334C117.028 0.296818 119.82 1.1476 121.71 2.84923C123.6 4.55072 124.545 6.56249 124.545 8.88412C124.545 10.4406 124.14 11.8652 123.33 13.158C122.52 14.4507 121.419 15.3477 120.026 15.849C120.737 16.2183 121.333 16.9966 121.817 18.1837L123.095 21.2308Z" fill="#FAFAFA"/>
<path d="M141.782 12.3864H152.481V17.9265V25.8015C149.384 27.8594 145.76 28.8882 141.612 28.8882C137.036 28.8882 133.69 27.7604 131.573 25.5049C129.456 23.249 128.397 19.5622 128.397 14.4441C128.397 9.32592 129.456 5.63914 131.573 3.38338C133.69 1.12788 137.036 5.91278e-05 141.612 5.91278e-05C143.544 5.91278e-05 145.469 0.230972 147.388 0.692577C149.306 1.15423 150.805 1.74125 151.885 2.45371L148.048 7.91466C146.286 6.88557 144.88 6.2393 143.828 5.97541C143.118 5.81722 142.379 5.73795 141.612 5.73795C140.646 5.73795 139.878 5.93605 139.31 6.33179C138.741 6.72738 138.273 7.58486 137.903 8.90402C137.534 10.2231 137.349 12.0697 137.349 14.4441C137.349 16.8185 137.534 18.6652 137.903 19.9844C138.273 21.3034 138.741 22.1609 139.31 22.5565C139.878 22.9522 140.646 23.1503 141.612 23.1503C142.407 23.1503 143.331 22.9655 144.382 22.5962V17.9265H140.503L141.782 12.3864Z" fill="#FAFAFA"/>
<g filter="url(#filter0_i_9111_3270)">
<path fill-rule="evenodd" clip-rule="evenodd" d="M79.352 7.83935C76.9867 15.1619 80.1629 23.0493 87.1259 27.1445C87.3523 21.753 86.5815 16.4189 84.8132 11.1417C87.6389 17.8599 88.9677 23.1393 88.8002 26.9796C92.6742 22.7716 93.6786 16.9066 91.4013 11.7938C89.1241 6.68053 83.9486 3.18046 78 2.73094C79.5133 4.2985 79.9636 6.00122 79.352 7.83935Z" fill="#034703"/>
</g>
<defs>
<filter id="filter0_i_9111_3270" x="78" y="2.73096" width="14.6042" height="24.4136" filterUnits="userSpaceOnUse" color-interpolation-filters="sRGB">
<feFlood flood-opacity="0" result="BackgroundImageFix"/>
<feBlend mode="normal" in="SourceGraphic" in2="BackgroundImageFix" result="shape"/>
<feColorMatrix in="SourceAlpha" type="matrix" values="0 0 0 0 0 0 0 0 0 0 0 0 0 0 0 0 0 0 127 0" result="hardAlpha"/>
<feOffset/>
<feGaussianBlur stdDeviation="2"/>
<feComposite in2="hardAlpha" operator="arithmetic" k2="-1" k3="1"/>
<feColorMatrix type="matrix" values="0 0 0 0 0 0 0 0 0 0 0 0 0 0 0 0 0 0 0.25 0"/>
<feBlend mode="normal" in2="shape" result="effect1_innerShadow_9111_3270"/>
</filter>
</defs>
</svg>
