<svg width="184" height="176" viewBox="0 0 184 176" fill="none" xmlns="http://www.w3.org/2000/svg">
<path fill-rule="evenodd" clip-rule="evenodd" d="M95.0957 7.4842C71.579 8.47773 51.9709 17.2575 37 41.7832C42.9775 23.0167 54.83 7.0215 83.179 0.527206C109.808 -2.74315 134.563 9.02539 145.96 40.1319C135.999 31.5329 125.113 27.1621 103.595 33.9875C88.7349 38.7009 75.7189 35.7235 63.0979 30.569C68.6814 18.0832 79.095 10.2737 95.0957 7.4842Z" fill="url(#paint0_linear_10173_2570)"/>
<path fill-rule="evenodd" clip-rule="evenodd" d="M113.584 108.447C129.622 101.168 140.827 89.3844 145.754 71.8967C137.786 86.0144 126.748 95.5729 112.557 100.961C104.923 103.86 96.7564 104.743 88.8305 105.721C102.869 102.55 114.446 96.151 119.921 82.6409C105.265 74.9054 90.8449 75.7456 76.7277 80.0734C60.4715 85.1224 47.5262 82.3641 37.2031 73.4229C41.776 86.3812 50.8627 98.5587 64.3592 106.03C82.7505 116.21 99.2704 114.944 113.584 108.447Z" fill="url(#paint1_linear_10173_2570)"/>
<path d="M91.3117 48.5761C92.7616 46.9093 95.0533 46.076 98.1867 46.076C101.32 46.076 103.612 46.9093 105.062 48.5761C106.512 50.2429 107.236 52.9671 107.236 56.7491C107.236 60.5308 106.512 63.2551 105.062 64.9217C103.612 66.5885 101.32 67.4219 98.1867 67.4219C95.0533 67.4219 92.7616 66.5885 91.3117 64.9217C89.8617 63.2551 89.1367 60.5308 89.1367 56.7491C89.1367 52.9671 89.8617 50.2429 91.3117 48.5761Z" fill="white"/>
<path d="M136.663 55.2285H143.99V59.3222V65.1411C141.869 66.6617 139.387 67.4219 136.546 67.4219C133.412 67.4219 131.121 66.5885 129.671 64.9219C128.221 63.2551 127.496 60.5308 127.496 56.7491C127.496 52.9672 128.221 50.243 129.671 48.5762C131.121 46.9096 133.412 46.0762 136.546 46.0762C137.869 46.0762 139.188 46.2468 140.501 46.5879C141.815 46.929 142.842 47.3628 143.581 47.8892L140.954 51.9244C139.747 51.164 138.784 50.6864 138.064 50.4914C137.577 50.3745 137.071 50.316 136.546 50.316C135.884 50.316 135.359 50.4624 134.969 50.7548C134.58 51.0471 134.259 51.6807 134.006 52.6554C133.753 53.6301 133.627 54.9945 133.627 56.7491C133.627 58.5035 133.753 59.868 134.006 60.8428C134.259 61.8174 134.58 62.451 134.969 62.7433C135.359 63.0357 135.884 63.1821 136.546 63.1821C137.091 63.1821 137.723 63.0455 138.443 62.7726V59.3222H135.787L136.663 55.2285Z" fill="white"/>
<path d="M124.801 61.9832C125.035 62.6848 125.56 62.8896 126.378 62.5972V66.9834C125.657 67.2758 124.908 67.4219 124.13 67.4219C123.157 67.4219 122.3 67.1685 121.561 66.6617C120.821 66.1548 120.296 65.3945 119.984 64.3808L119.109 61.5152C118.836 60.6186 118.505 60.0338 118.116 59.7607C117.785 59.527 117.299 59.4003 116.656 59.3808L117.007 55.287C117.474 55.4235 117.853 55.4917 118.145 55.4917C118.729 55.4917 119.182 55.2773 119.503 54.8484C119.824 54.4196 119.984 53.8835 119.984 53.2401C119.984 52.5384 119.77 51.9244 119.342 51.3981C118.914 50.8718 118.311 50.6085 117.532 50.6085H116.014V66.9834H110.176V46.5148H118.116C120.646 46.5148 122.558 47.1435 123.852 48.4008C125.146 49.6581 125.794 51.1446 125.794 52.8601C125.794 54.0101 125.516 55.0628 124.962 56.0181C124.407 56.9733 123.653 57.636 122.699 58.0065C123.186 58.2793 123.594 58.8545 123.925 59.7316L124.801 61.9832Z" fill="white"/>
<path d="M46.474 67.4219C43.9245 67.4219 41.6767 66.7786 39.7305 65.4921L41.9493 61.3398C42.5525 61.8856 43.3018 62.3389 44.1971 62.6995C45.0923 63.0602 45.9096 63.2406 46.6492 63.2406C47.2331 63.2406 47.7099 63.0943 48.0797 62.8018C48.4495 62.5096 48.6343 62.1586 48.6343 61.7492C48.6343 61.0669 48.216 60.5212 47.3789 60.1117L44.6349 58.7666C43.1363 58.0454 42.0076 57.1194 41.2485 55.9889C40.4895 54.8581 40.1102 53.6788 40.1102 52.4506C40.1102 50.7157 40.7913 49.2243 42.1535 47.9768C43.516 46.7293 45.3356 46.1054 47.6125 46.1054C50.1036 46.1054 52.3224 46.7487 54.2686 48.0353L51.9331 52.0705C50.2398 50.8034 48.7414 50.1699 47.4374 50.1699C46.912 50.1699 46.5033 50.316 46.2113 50.6085C45.9193 50.9009 45.7735 51.2518 45.7735 51.6611C45.7735 52.5775 46.2795 53.2791 47.2915 53.7664L49.9479 55.0823C51.3881 55.7841 52.4829 56.6759 53.2321 57.7578C53.9813 58.8397 54.356 59.9753 54.356 61.1643C54.356 62.8604 53.6456 64.3272 52.225 65.565C50.8043 66.8031 48.8873 67.4219 46.474 67.4219ZM62.5008 62.8896H70.7623L69.8864 66.9834H61.7417H56.6624V46.5148H62.5008H70.1785V50.6085H62.5008V54.7021H68.7189V58.796H62.5008V62.8896ZM79.0823 62.8896H87.1977L86.322 66.9834H78.1773H73.2438V46.5148H79.0823V62.8896Z" fill="white"/>
<path fill-rule="evenodd" clip-rule="evenodd" d="M94.1159 51.8681C92.4985 57.2787 94.6703 63.1068 99.4313 66.1328C99.5861 62.149 99.0591 58.2076 97.8499 54.3082C99.782 59.2723 100.691 63.1733 100.576 66.0109C103.225 62.9017 103.912 58.5679 102.355 54.79C100.798 51.0118 97.2588 48.4256 93.1914 48.0934C94.2261 49.2517 94.5341 50.5098 94.1159 51.8681Z" fill="#034703"/>
<g clip-path="url(#clip0_10173_2570)">
<path fill-rule="evenodd" clip-rule="evenodd" d="M8.64976 145.588C10.2192 145.516 10.7195 145.5 14.7173 145.5C18.7151 145.5 19.2154 145.517 20.7835 145.588C22.3516 145.659 23.4219 145.909 24.3585 146.272C25.3392 146.643 26.2289 147.222 26.9648 147.971C27.714 148.706 28.292 149.594 28.6613 150.576C29.0252 151.513 29.2741 152.583 29.3463 154.148C29.4186 155.72 29.4346 156.221 29.4346 160.217C29.4346 164.215 29.4172 164.715 29.3463 166.285C29.2754 167.85 29.0252 168.921 28.6613 169.857C28.292 170.839 27.7131 171.729 26.9648 172.465C26.2289 173.214 25.3392 173.792 24.3585 174.161C23.4219 174.525 22.3516 174.774 20.7862 174.846C19.2154 174.919 18.7151 174.935 14.7173 174.935C10.7195 174.935 10.2192 174.917 8.64976 174.846C7.08437 174.775 6.01403 174.525 5.07747 174.161C4.0953 173.792 3.20543 173.213 2.46983 172.465C1.72109 171.73 1.14168 170.84 0.771989 169.858C0.409409 168.922 0.160552 167.852 0.0883038 166.286C0.0160552 164.714 0 164.214 0 160.217C0 156.22 0.0173932 155.719 0.0883038 154.151C0.159214 152.583 0.409409 151.513 0.771989 150.576C1.14223 149.594 1.72208 148.705 2.47117 147.97C3.20575 147.221 4.09472 146.642 5.07613 146.272C6.01269 145.909 7.08437 145.661 8.64976 145.588ZM20.6644 148.237C19.1124 148.167 18.6468 148.152 14.7173 148.152C10.7878 148.152 10.3222 148.167 8.77017 148.237C7.33457 148.303 6.55589 148.542 6.03677 148.744C5.35041 149.012 4.85939 149.329 4.34428 149.844C3.85599 150.319 3.48021 150.898 3.2445 151.537C3.04247 152.056 2.80298 152.835 2.73742 154.27C2.66651 155.822 2.65179 156.288 2.65179 160.217C2.65179 164.147 2.66651 164.612 2.73742 166.164C2.80298 167.6 3.04247 168.379 3.2445 168.898C3.47997 169.536 3.85593 170.115 4.34428 170.59C4.81925 171.079 5.39857 171.455 6.03677 171.69C6.55589 171.892 7.33457 172.132 8.77017 172.197C10.3222 172.268 10.7864 172.283 14.7173 172.283C18.6482 172.283 19.1124 172.268 20.6644 172.197C22.1 172.132 22.8787 171.892 23.3978 171.69C24.0842 171.423 24.5752 171.105 25.0903 170.59C25.5787 170.115 25.9546 169.536 26.1901 168.898C26.3921 168.379 26.6316 167.6 26.6972 166.164C26.7681 164.612 26.7828 164.147 26.7828 160.217C26.7828 156.288 26.7681 155.822 26.6972 154.27C26.6316 152.835 26.3921 152.056 26.1901 151.537C25.9225 150.85 25.6054 150.359 25.0903 149.844C24.6153 149.356 24.037 148.98 23.3978 148.744C22.8787 148.542 22.1 148.303 20.6644 148.237ZM12.8375 164.754C13.4426 165.005 14.0918 165.132 14.7469 165.128C15.4019 165.124 16.0495 164.99 16.6516 164.732C17.2537 164.474 17.7981 164.098 18.2527 163.626C18.7074 163.154 19.063 162.597 19.2988 161.986C19.5346 161.374 19.6457 160.722 19.6255 160.067C19.6054 159.413 19.4545 158.769 19.1817 158.173C18.9089 157.578 18.5196 157.043 18.0369 156.6C17.5542 156.157 16.9878 155.815 16.371 155.595C15.1646 155.163 13.8373 155.221 12.6725 155.754C11.5077 156.288 10.5976 157.256 10.1365 158.451C9.67533 159.646 9.69968 160.975 10.2043 162.152C10.709 163.33 11.6539 164.264 12.8375 164.754ZM9.36823 154.868C10.0707 154.166 10.9046 153.609 11.8224 153.228C12.7402 152.848 13.7239 152.653 14.7173 152.653C15.7107 152.653 16.6944 152.848 17.6122 153.228C18.53 153.609 19.3639 154.166 20.0664 154.868C20.7688 155.571 21.326 156.405 21.7062 157.322C22.0864 158.24 22.282 159.224 22.282 160.217C22.282 161.211 22.0864 162.194 21.7062 163.112C21.326 164.03 20.7688 164.864 20.0664 165.566C18.6477 166.985 16.7236 167.782 14.7173 167.782C12.711 167.782 10.7869 166.985 9.36823 165.566C7.94957 164.148 7.15258 162.224 7.15258 160.217C7.15258 158.211 7.94957 156.287 9.36823 154.868ZM23.9598 153.779C24.3047 153.454 24.5062 153.005 24.52 152.531C24.5338 152.057 24.3587 151.597 24.0334 151.252C23.708 150.907 23.2589 150.705 22.7849 150.692C22.3109 150.678 21.8509 150.853 21.506 151.178C21.1611 151.504 20.9596 151.953 20.9458 152.427C20.932 152.901 21.107 153.361 21.4324 153.706C21.7578 154.05 22.2069 154.252 22.6808 154.266C23.1548 154.28 23.6149 154.105 23.9598 153.779Z" fill="white"/>
</g>
<g clip-path="url(#clip1_10173_2570)">
<path d="M84.2185 150.555C82.99 151.1 81.6702 151.468 80.2828 151.634C81.7149 150.778 82.7865 149.429 83.2975 147.841C81.952 148.64 80.4795 149.202 78.9439 149.503C77.9117 148.401 76.5444 147.671 75.0543 147.425C73.5643 147.18 72.0349 147.433 70.7036 148.146C69.3723 148.859 68.3136 149.991 67.6918 151.367C67.07 152.743 66.9199 154.286 67.2649 155.756C64.5401 155.619 61.8747 154.91 59.4414 153.677C57.0082 152.443 54.8615 150.711 53.1406 148.594C52.2628 150.103 51.9935 151.89 52.3878 153.59C52.782 155.291 53.81 156.777 55.2621 157.746C54.1738 157.711 53.1095 157.417 52.1577 156.888V156.976C52.1576 158.559 52.7051 160.093 53.7073 161.318C54.7094 162.543 56.1046 163.383 57.6559 163.697C56.6458 163.97 55.5868 164.011 54.5589 163.815C54.9967 165.177 55.8495 166.368 56.9979 167.221C58.1464 168.074 59.5329 168.547 60.9634 168.573C58.5351 170.479 55.5361 171.513 52.449 171.508C51.9028 171.508 51.357 171.476 50.8145 171.412C53.9475 173.427 57.5946 174.496 61.3194 174.492C73.9283 174.492 80.8213 164.049 80.8213 154.991C80.8213 154.697 80.8139 154.4 80.8007 154.106C82.1415 153.136 83.2988 151.935 84.2185 150.56L84.2214 150.555H84.2185Z" fill="white"/>
</g>
<path d="M126.822 147.706C126.822 147.51 126.744 147.323 126.606 147.185C126.468 147.047 126.281 146.97 126.086 146.97H122.407C120.554 146.877 118.74 147.522 117.361 148.763C115.982 150.004 115.151 151.74 115.048 153.592V157.566H111.369C111.174 157.566 110.986 157.644 110.848 157.782C110.71 157.92 110.633 158.107 110.633 158.302V162.128C110.633 162.324 110.71 162.511 110.848 162.649C110.986 162.787 111.174 162.864 111.369 162.864H115.048V172.725C115.048 172.92 115.126 173.107 115.264 173.245C115.402 173.383 115.589 173.461 115.784 173.461H120.199C120.394 173.461 120.581 173.383 120.719 173.245C120.857 173.107 120.935 172.92 120.935 172.725V162.864H124.791C124.955 162.867 125.114 162.814 125.245 162.716C125.375 162.617 125.469 162.478 125.512 162.32L126.572 158.493C126.601 158.385 126.605 158.271 126.583 158.16C126.561 158.05 126.515 157.946 126.446 157.856C126.378 157.766 126.29 157.694 126.19 157.643C126.089 157.593 125.978 157.567 125.865 157.566H120.935V153.592C120.972 153.228 121.143 152.891 121.415 152.646C121.687 152.401 122.041 152.266 122.407 152.268H126.086C126.281 152.268 126.468 152.19 126.606 152.052C126.744 151.914 126.822 151.727 126.822 151.532V147.706Z" fill="white"/>
<g clip-path="url(#clip2_10173_2570)">
<path fill-rule="evenodd" clip-rule="evenodd" d="M165.115 155.757H170.581V158.48C171.369 156.914 173.388 155.507 176.421 155.507C182.236 155.507 183.616 158.624 183.616 164.343V174.935H177.729V165.645C177.729 162.389 176.942 160.552 174.937 160.552C172.157 160.552 171.002 162.531 171.002 165.644V174.935H165.115V155.757ZM155.021 174.685H160.907V155.507H155.021V174.685ZM161.751 149.253C161.751 149.747 161.653 150.235 161.463 150.691C161.273 151.146 160.994 151.559 160.643 151.905C159.929 152.609 158.968 153.004 157.966 153.004C156.964 153.005 156.002 152.61 155.288 151.907C154.938 151.559 154.661 151.146 154.471 150.69C154.281 150.235 154.182 149.747 154.182 149.253C154.182 148.257 154.579 147.303 155.29 146.6C156.002 145.894 156.964 145.498 157.966 145.498C158.969 145.498 159.931 145.894 160.643 146.6C161.352 147.303 161.751 148.257 161.751 149.253Z" fill="white"/>
</g>
<defs>
<linearGradient id="paint0_linear_10173_2570" x1="144.545" y1="84.9701" x2="168.226" y2="25.2053" gradientUnits="userSpaceOnUse">
<stop stop-color="#A9D046"/>
<stop offset="1" stop-color="#00A85A"/>
</linearGradient>
<linearGradient id="paint1_linear_10173_2570" x1="15.6205" y1="77.532" x2="38.592" y2="135.456" gradientUnits="userSpaceOnUse">
<stop stop-color="#A9D046"/>
<stop offset="1" stop-color="#00A85A"/>
</linearGradient>
<clipPath id="clip0_10173_2570">
<rect width="29.4346" height="29.4346" fill="white" transform="translate(0 145.5)"/>
</clipPath>
<clipPath id="clip1_10173_2570">
<rect width="35.3108" height="29.4257" fill="white" transform="translate(49.4355 145.5)"/>
</clipPath>
<clipPath id="clip2_10173_2570">
<rect width="29.4346" height="29.4346" fill="white" transform="translate(154.182 145.5)"/>
</clipPath>
</defs>
</svg>
