<svg width="109" height="114" viewBox="0 0 109 114" fill="none" xmlns="http://www.w3.org/2000/svg">
<path fill-rule="evenodd" clip-rule="evenodd" d="M58.0957 7.4842C34.579 8.47773 14.9709 17.2575 0 41.7832C5.97747 23.0167 17.83 7.0215 46.179 0.527206C72.8077 -2.74315 97.5625 9.02539 108.96 40.1319C98.9989 31.5329 88.1133 27.1621 66.5955 33.9875C51.7349 38.7009 38.7189 35.7235 26.0979 30.569C31.6814 18.0832 42.095 10.2737 58.0957 7.4842Z" fill="url(#paint0_linear_10296_59)"/>
<path fill-rule="evenodd" clip-rule="evenodd" d="M76.5837 108.447C92.6216 101.168 103.827 89.3844 108.754 71.8967C100.786 86.0144 89.748 95.5729 75.5567 100.961C67.9229 103.86 59.7564 104.743 51.8305 105.721C65.8692 102.55 77.4458 96.151 82.9212 82.6409C68.2651 74.9054 53.8449 75.7456 39.7277 80.0734C23.4715 85.1224 10.5262 82.3641 0.203125 73.4229C4.77599 86.3812 13.8627 98.5587 27.3592 106.03C45.7505 116.21 62.2704 114.944 76.5837 108.447Z" fill="url(#paint1_linear_10296_59)"/>
<path d="M54.3117 48.5761C55.7616 46.9093 58.0533 46.076 61.1867 46.076C64.32 46.076 66.6116 46.9093 68.0617 48.5761C69.5115 50.2429 70.2364 52.9671 70.2364 56.7491C70.2364 60.5308 69.5115 63.2551 68.0617 64.9217C66.6116 66.5885 64.32 67.4219 61.1867 67.4219C58.0533 67.4219 55.7616 66.5885 54.3117 64.9217C52.8617 63.2551 52.1367 60.5308 52.1367 56.7491C52.1367 52.9671 52.8617 50.2429 54.3117 48.5761Z" fill="white"/>
<path d="M99.6626 55.2285H106.99V59.3222V65.1411C104.869 66.6617 102.387 67.4219 99.5458 67.4219C96.4123 67.4219 94.1209 66.5885 92.6708 64.9219C91.221 63.2551 90.4961 60.5308 90.4961 56.7491C90.4961 52.9672 91.221 50.243 92.6708 48.5762C94.1209 46.9096 96.4123 46.0762 99.5458 46.0762C100.869 46.0762 102.188 46.2468 103.501 46.5879C104.815 46.929 105.842 47.3628 106.581 47.8892L103.954 51.9244C102.747 51.164 101.784 50.6864 101.064 50.4914C100.577 50.3745 100.071 50.316 99.5458 50.316C98.8841 50.316 98.3585 50.4624 97.9695 50.7548C97.5801 51.0471 97.259 51.6807 97.006 52.6554C96.753 53.6301 96.6265 54.9945 96.6265 56.7491C96.6265 58.5035 96.753 59.868 97.006 60.8428C97.259 61.8174 97.5801 62.451 97.9695 62.7433C98.3585 63.0357 98.8841 63.1821 99.5458 63.1821C100.091 63.1821 100.723 63.0455 101.443 62.7726V59.3222H98.7868L99.6626 55.2285Z" fill="white"/>
<path d="M87.8011 61.9832C88.0346 62.6848 88.5603 62.8896 89.3776 62.5972V66.9834C88.6575 67.2758 87.9082 67.4219 87.1297 67.4219C86.1567 67.4219 85.3004 67.1685 84.5608 66.6617C83.8213 66.1548 83.2958 65.3945 82.9845 64.3808L82.1087 61.5152C81.8361 60.6186 81.5053 60.0338 81.1161 59.7607C80.7852 59.527 80.2987 59.4003 79.6564 59.3808L80.0068 55.287C80.4739 55.4235 80.8533 55.4917 81.1454 55.4917C81.7291 55.4917 82.1815 55.2773 82.5028 54.8484C82.8238 54.4196 82.9845 53.8835 82.9845 53.2401C82.9845 52.5384 82.7705 51.9244 82.3422 51.3981C81.914 50.8718 81.3109 50.6085 80.5322 50.6085H79.0142V66.9834H73.1758V46.5148H81.1161C83.6461 46.5148 85.5582 47.1435 86.8523 48.4008C88.1465 49.6581 88.7938 51.1446 88.7938 52.8601C88.7938 54.0101 88.5165 55.0628 87.9617 56.0181C87.407 56.9733 86.6528 57.636 85.6993 58.0065C86.1858 58.2793 86.5945 58.8545 86.9254 59.7316L87.8011 61.9832Z" fill="white"/>
<path d="M9.47398 67.4219C6.92448 67.4219 4.6767 66.7786 2.73047 65.4921L4.94928 61.3398C5.55254 61.8856 6.30179 62.3389 7.19707 62.6995C8.09229 63.0602 8.90955 63.2406 9.64924 63.2406C10.2331 63.2406 10.7099 63.0943 11.0797 62.8018C11.4495 62.5096 11.6343 62.1586 11.6343 61.7492C11.6343 61.0669 11.216 60.5212 10.3789 60.1117L7.63488 58.7666C6.1363 58.0454 5.00757 57.1194 4.24848 55.9889C3.48949 54.8581 3.11016 53.6788 3.11016 52.4506C3.11016 50.7157 3.79127 49.2243 5.15352 47.9768C6.51599 46.7293 8.33558 46.1054 10.6125 46.1054C13.1036 46.1054 15.3224 46.7487 17.2686 48.0353L14.9331 52.0705C13.2398 50.8034 11.7414 50.1699 10.4374 50.1699C9.91204 50.1699 9.50326 50.316 9.21133 50.6085C8.91934 50.9009 8.77346 51.2518 8.77346 51.6611C8.77346 52.5775 9.2795 53.2791 10.2915 53.7664L12.9479 55.0823C14.3881 55.7841 15.4829 56.6759 16.2321 57.7578C16.9813 58.8397 17.356 59.9753 17.356 61.1643C17.356 62.8604 16.6456 64.3272 15.225 65.565C13.8043 66.8031 11.8873 67.4219 9.47398 67.4219ZM25.5008 62.8896H33.7623L32.8864 66.9834H24.7417H19.6624V46.5148H25.5008H33.1785V50.6085H25.5008V54.7021H31.7189V58.796H25.5008V62.8896ZM42.0823 62.8896H50.1977L49.322 66.9834H41.1773H36.2438V46.5148H42.0823V62.8896Z" fill="white"/>
<path fill-rule="evenodd" clip-rule="evenodd" d="M57.1159 51.8681C55.4985 57.2787 57.6703 63.1068 62.4313 66.1328C62.5861 62.149 62.0591 58.2076 60.8499 54.3082C62.782 59.2723 63.6906 63.1733 63.5761 66.0109C66.225 62.9017 66.9117 58.5679 65.3546 54.79C63.7975 51.0118 60.2588 48.4256 56.1914 48.0934C57.2261 49.2517 57.5341 50.5098 57.1159 51.8681Z" fill="#034703"/>
<defs>
<linearGradient id="paint0_linear_10296_59" x1="107.545" y1="84.9701" x2="131.226" y2="25.2053" gradientUnits="userSpaceOnUse">
<stop stop-color="#A9D046"/>
<stop offset="1" stop-color="#00A85A"/>
</linearGradient>
<linearGradient id="paint1_linear_10296_59" x1="-21.3795" y1="77.532" x2="1.59196" y2="135.456" gradientUnits="userSpaceOnUse">
<stop stop-color="#A9D046"/>
<stop offset="1" stop-color="#00A85A"/>
</linearGradient>
</defs>
</svg>
