<svg width="25" height="25" viewBox="0 0 25 25" fill="none" xmlns="http://www.w3.org/2000/svg">
<mask id="mask0_9111_25791" style="mask-type:alpha" maskUnits="userSpaceOnUse" x="0" y="0" width="25" height="25">
<rect x="0.769531" y="0.446777" width="23.7203" height="23.7203" fill="#D9D9D9"/>
</mask>
<g mask="url(#mask0_9111_25791)">
<path d="M14.7474 12.1195V12.1308M5.71106 22.3089V4.19448C5.71106 3.59395 5.94907 3.01801 6.37273 2.59337C6.79639 2.16874 7.37099 1.93018 7.97014 1.93018H17.0064C17.6056 1.93018 18.1802 2.16874 18.6038 2.59337C19.0275 3.01801 19.2655 3.59395 19.2655 4.19448V12.1308M5.71106 22.3089H13.0531M5.71106 22.3089H3.73438" stroke="#222222" stroke-width="1.92727" stroke-linecap="round" stroke-linejoin="round"/>
<path d="M17.0707 17.7804V15.3038C17.0707 14.9097 17.2278 14.5318 17.5074 14.2531C17.787 13.9744 18.1663 13.8179 18.5618 13.8179C18.9573 13.8179 19.3365 13.9744 19.6162 14.2531C19.8958 14.5318 20.0529 14.9097 20.0529 15.3038V17.7804M15.7442 16.2945H21.3802C21.5235 16.2944 21.6651 16.3253 21.7954 16.3849C21.9256 16.4446 22.0414 16.5316 22.1347 16.64C22.228 16.7484 22.2968 16.8756 22.3361 17.0129C22.3755 17.1503 22.3846 17.2945 22.3628 17.4357L21.739 21.4735C21.6849 21.8244 21.5064 22.1444 21.236 22.3755C20.9656 22.6066 20.6211 22.7337 20.2648 22.7336H16.8591C16.5029 22.7335 16.1585 22.6065 15.8882 22.3753C15.6178 22.1442 15.4395 21.8243 15.3853 21.4735L14.7616 17.4357C14.7398 17.2945 14.7489 17.1503 14.7882 17.0129C14.8276 16.8756 14.8963 16.7484 14.9897 16.64C15.083 16.5316 15.1988 16.4446 15.329 16.3849C15.4592 16.3253 15.6009 16.2944 15.7442 16.2945Z" stroke="#222222" stroke-width="1.48252" stroke-linecap="round" stroke-linejoin="round"/>
</g>
</svg>
