<svg width="24" height="25" viewBox="0 0 24 25" fill="none" xmlns="http://www.w3.org/2000/svg">
<mask id="mask0_9111_25800" style="mask-type:alpha" maskUnits="userSpaceOnUse" x="0" y="0" width="24" height="25">
<rect x="0.0078125" y="0.705566" width="23.7203" height="23.7203" fill="#D9D9D9"/>
</mask>
<g mask="url(#mask0_9111_25800)">
<path d="M13.3482 16.0578H4.45312C4.99171 15.7521 5.45116 15.3239 5.79449 14.8078C6.13782 14.2916 6.35544 13.7018 6.42982 13.0859V10.114C6.48868 8.85698 6.88772 7.63969 7.58415 6.59262C8.28059 5.54555 9.24817 4.70817 10.3832 4.17023C10.3832 3.64476 10.5915 3.14082 10.9622 2.76926C11.3329 2.3977 11.8356 2.18896 12.3599 2.18896C12.8841 2.18896 13.3869 2.3977 13.7576 2.76926C14.1283 3.14082 14.3366 3.64476 14.3366 4.17023C15.4716 4.70817 16.4392 5.54555 17.1356 6.59262C17.8321 7.63969 18.2311 8.85698 18.29 10.114V12.0953M9.39485 16.0578V17.0484C9.39471 17.5414 9.51693 18.0267 9.7505 18.4606C9.98406 18.8944 10.3216 19.2632 10.7328 19.5337C11.144 19.8043 11.6159 19.968 12.1059 20.0102C12.5959 20.0525 13.0888 19.9719 13.54 19.7756M20.2666 18.0391L18.29 16.0578M16.3133 14.0765L18.29 16.0578M16.3133 18.0391L18.29 16.0578M20.2666 14.0765L18.29 16.0578" stroke="black" stroke-width="1.92727" stroke-linecap="round" stroke-linejoin="round"/>
</g>
</svg>
