<svg width="40" height="40" viewBox="0 0 40 40" fill="none" xmlns="http://www.w3.org/2000/svg">
<path d="M14.7717 16.0425C14.5307 16.0425 14.2951 15.9711 14.0948 15.8372C13.8944 15.7033 13.7382 15.513 13.646 15.2904C13.5538 15.0678 13.5297 14.8228 13.5767 14.5865C13.6237 14.3501 13.7397 14.133 13.9101 13.9626C14.0805 13.7922 14.2976 13.6762 14.534 13.6292C14.7703 13.5822 15.0153 13.6063 15.2379 13.6985C15.4605 13.7907 15.6508 13.9469 15.7847 14.1472C15.9186 14.3476 15.99 14.5832 15.99 14.8241C15.99 15.1473 15.8617 15.4572 15.6332 15.6857C15.4047 15.9142 15.0948 16.0425 14.7717 16.0425ZM24.5187 23.3528C24.2777 23.3528 24.0421 23.4242 23.8418 23.5581C23.6414 23.692 23.4852 23.8823 23.393 24.1049C23.3008 24.3275 23.2767 24.5725 23.3237 24.8088C23.3707 25.0452 23.4867 25.2623 23.6571 25.4327C23.8275 25.6031 24.0446 25.7191 24.281 25.7661C24.5173 25.8131 24.7623 25.789 24.9849 25.6968C25.2075 25.6046 25.3978 25.4484 25.5317 25.248C25.6656 25.0477 25.737 24.8121 25.737 24.5712C25.737 24.248 25.6087 23.9381 25.3802 23.7096C25.1517 23.4811 24.8418 23.3528 24.5187 23.3528ZM36.7024 19.6976C36.7024 21.2876 35.5587 22.4801 34.5489 23.5325C33.9748 24.1325 33.3808 24.7509 33.157 25.2946C32.9498 25.7926 32.9376 26.618 32.9255 27.4176C32.9026 28.904 32.8782 30.5884 31.7071 31.7596C30.5359 32.9307 28.8515 32.9551 27.3651 32.9779C26.5655 32.9901 25.7401 33.0023 25.2421 33.2094C24.6984 33.4333 24.08 34.0273 23.48 34.6014C22.4276 35.6112 21.2351 36.7549 19.6452 36.7549C18.0552 36.7549 16.8627 35.6112 15.8103 34.6014C15.2103 34.0273 14.5919 33.4333 14.0482 33.2094C13.5502 33.0023 12.7248 32.9901 11.9252 32.9779C10.4388 32.9551 8.7544 32.9307 7.58323 31.7596C6.41207 30.5884 6.3877 28.904 6.36486 27.4176C6.35267 26.618 6.34049 25.7926 6.13337 25.2946C5.90949 24.7509 5.31553 24.1325 4.74137 23.5325C3.73164 22.4801 2.58789 21.2876 2.58789 19.6976C2.58789 18.1077 3.73164 16.9152 4.74137 15.8628C5.31553 15.2628 5.90949 14.6444 6.13337 14.1007C6.34049 13.6027 6.35267 12.7773 6.36486 11.9777C6.3877 10.4913 6.41207 8.80689 7.58323 7.63572C8.7544 6.46456 10.4388 6.44019 11.9252 6.41735C12.7248 6.40516 13.5502 6.39298 14.0482 6.18586C14.5919 5.96198 15.2103 5.36802 15.8103 4.79386C16.8627 3.78413 18.0552 2.64038 19.6452 2.64038C21.2351 2.64038 22.4276 3.78413 23.48 4.79386C24.08 5.36802 24.6984 5.96198 25.2421 6.18586C25.7401 6.39298 26.5655 6.40516 27.3651 6.41735C28.8515 6.44019 30.5359 6.46456 31.7071 7.63572C32.8782 8.80689 32.9026 10.4913 32.9255 11.9777C32.9376 12.7773 32.9498 13.6027 33.157 14.1007C33.3808 14.6444 33.9748 15.2628 34.5489 15.8628C35.5587 16.9152 36.7024 18.1077 36.7024 19.6976ZM14.7717 18.4793C15.4946 18.4793 16.2013 18.2649 16.8023 17.8633C17.4034 17.4616 17.8719 16.8908 18.1486 16.2229C18.4252 15.555 18.4976 14.8201 18.3566 14.1111C18.2155 13.402 17.8674 12.7508 17.3562 12.2396C16.845 11.7284 16.1938 11.3803 15.4847 11.2392C14.7757 11.0982 14.0408 11.1706 13.3729 11.4472C12.705 11.7239 12.1342 12.1924 11.7325 12.7935C11.3309 13.3945 11.1165 14.1012 11.1165 14.8241C11.1165 15.7935 11.5016 16.7232 12.1871 17.4087C12.8726 18.0942 13.8023 18.4793 14.7717 18.4793ZM26.599 14.4678C26.7122 14.3546 26.802 14.2202 26.8633 14.0723C26.9246 13.9244 26.9561 13.7659 26.9561 13.6058C26.9561 13.4457 26.9246 13.2872 26.8633 13.1393C26.802 12.9914 26.7122 12.857 26.599 12.7438C26.4858 12.6306 26.3515 12.5408 26.2036 12.4795C26.0556 12.4182 25.8971 12.3867 25.737 12.3867C25.577 12.3867 25.4184 12.4182 25.2705 12.4795C25.1226 12.5408 24.9882 12.6306 24.875 12.7438L12.6913 24.9275C12.5781 25.0407 12.4883 25.1751 12.427 25.323C12.3658 25.4709 12.3342 25.6294 12.3342 25.7895C12.3342 25.9496 12.3658 26.1081 12.427 26.256C12.4883 26.4039 12.5781 26.5383 12.6913 26.6515C12.9199 26.8801 13.23 27.0086 13.5533 27.0086C13.7134 27.0086 13.8719 26.9771 14.0198 26.9158C14.1677 26.8545 14.3021 26.7647 14.4153 26.6515L26.599 14.4678ZM28.1738 24.5712C28.1738 23.8482 27.9594 23.1416 27.5578 22.5405C27.1562 21.9394 26.5853 21.4709 25.9174 21.1943C25.2495 20.9176 24.5146 20.8452 23.8056 20.9863C23.0966 21.1273 22.4453 21.4754 21.9341 21.9866C21.4229 22.4978 21.0748 23.149 20.9338 23.8581C20.7927 24.5671 20.8651 25.302 21.1418 25.9699C21.4184 26.6378 21.8869 27.2087 22.488 27.6103C23.0891 28.0119 23.7957 28.2263 24.5187 28.2263C25.4881 28.2263 26.4178 27.8412 27.1032 27.1557C27.7887 26.4703 28.1738 25.5406 28.1738 24.5712Z" fill="#00A85A"/>
</svg>
