<svg width="31" height="30" viewBox="0 0 31 30" fill="none" xmlns="http://www.w3.org/2000/svg">
<path d="M22.8218 2.7055C22.8218 2.51034 22.7443 2.32317 22.6063 2.18517C22.4683 2.04717 22.2811 1.96964 22.086 1.96964H18.4067C16.5539 1.87735 14.74 2.52211 13.3612 3.76306C11.9823 5.00401 11.1507 6.74025 11.048 8.59243V12.5661H7.36868C7.17351 12.5661 6.98634 12.6436 6.84834 12.7816C6.71034 12.9196 6.63281 13.1068 6.63281 13.302V17.1285C6.63281 17.3236 6.71034 17.5108 6.84834 17.6488C6.98634 17.7868 7.17351 17.8643 7.36868 17.8643H11.048V27.7249C11.048 27.9201 11.1255 28.1073 11.2635 28.2453C11.4015 28.3833 11.5887 28.4608 11.7839 28.4608H16.1991C16.3942 28.4608 16.5814 28.3833 16.7194 28.2453C16.8574 28.1073 16.9349 27.9201 16.9349 27.7249V17.8643H20.7909C20.9545 17.8667 21.1143 17.8144 21.2449 17.7158C21.3755 17.6172 21.4695 17.4778 21.512 17.3198L22.5717 13.4933C22.6009 13.3846 22.6049 13.2706 22.5832 13.1601C22.5614 13.0496 22.5147 12.9456 22.4464 12.856C22.3782 12.7664 22.2903 12.6937 22.1895 12.6435C22.0888 12.5932 21.9778 12.5667 21.8652 12.5661H16.9349V8.59243C16.9715 8.22814 17.1426 7.89058 17.4147 7.64565C17.6869 7.40073 18.0405 7.26603 18.4067 7.26787H22.086C22.2811 7.26787 22.4683 7.19034 22.6063 7.05234C22.7443 6.91434 22.8218 6.72717 22.8218 6.532V2.7055Z" fill="white"/>
</svg>
