<svg width="28" height="28" viewBox="0 0 28 28" fill="none" xmlns="http://www.w3.org/2000/svg">
<path d="M13.745 24.5615C15.7836 24.5615 17.7765 23.957 19.4715 22.8244C21.1666 21.6918 22.4878 20.082 23.2679 18.1986C24.0481 16.3151 24.2522 14.2426 23.8545 12.2431C23.4567 10.2437 22.475 8.40707 21.0335 6.96554C19.592 5.52401 17.7554 4.54231 15.7559 4.14459C13.7564 3.74688 11.6839 3.951 9.80049 4.73115C7.91704 5.5113 6.30723 6.83244 5.17463 8.5275C4.04202 10.2226 3.4375 12.2154 3.4375 14.254C3.4375 15.9582 3.8498 17.5639 4.58278 18.9806L3.4375 24.5615L9.01844 23.4163C10.434 24.1481 12.042 24.5615 13.745 24.5615Z" stroke="white" stroke-width="1.71792" stroke-linecap="round" stroke-linejoin="round"/>
</svg>
