<svg width="30" height="30" viewBox="0 0 30 30" fill="none" xmlns="http://www.w3.org/2000/svg">
<g clip-path="url(#clip0_10296_75)">
<path fill-rule="evenodd" clip-rule="evenodd" d="M8.64976 0.588304C10.2192 0.516055 10.7195 0.5 14.7173 0.5C18.7151 0.5 19.2154 0.517393 20.7835 0.588304C22.3516 0.659214 23.4219 0.909409 24.3585 1.27199C25.3392 1.6426 26.2289 2.22192 26.9648 2.97117C27.714 3.7057 28.292 4.59409 28.6613 5.57613C29.0252 6.51269 29.2741 7.58304 29.3463 9.14842C29.4186 10.7205 29.4346 11.2209 29.4346 15.2173C29.4346 19.2151 29.4172 19.7154 29.3463 21.2848C29.2754 22.8502 29.0252 23.9206 28.6613 24.8571C28.292 25.8393 27.7131 26.7292 26.9648 27.4648C26.2289 28.214 25.3392 28.792 24.3585 29.1613C23.4219 29.5252 22.3516 29.7741 20.7862 29.8463C19.2154 29.9186 18.7151 29.9346 14.7173 29.9346C10.7195 29.9346 10.2192 29.9172 8.64976 29.8463C7.08437 29.7754 6.01403 29.5252 5.07747 29.1613C4.0953 28.792 3.20543 28.2131 2.46983 27.4648C1.72109 26.7298 1.14168 25.8404 0.771989 24.8585C0.409409 23.9219 0.160552 22.8516 0.0883038 21.2862C0.0160552 19.7141 0 19.2137 0 15.2173C0 11.2195 0.0173932 10.7192 0.0883038 9.1511C0.159214 7.58304 0.409409 6.51269 0.771989 5.57613C1.14223 4.59419 1.72208 3.70478 2.47117 2.96983C3.20575 2.22126 4.09472 1.64185 5.07613 1.27199C6.01269 0.909409 7.08437 0.660552 8.64976 0.588304ZM20.6644 3.23742C19.1124 3.16651 18.6468 3.15179 14.7173 3.15179C10.7878 3.15179 10.3222 3.16651 8.77017 3.23742C7.33457 3.30298 6.55589 3.54247 6.03677 3.7445C5.35041 4.01208 4.85939 4.32917 4.34428 4.84428C3.85599 5.31932 3.48021 5.89761 3.2445 6.53677C3.04247 7.05589 2.80298 7.83457 2.73742 9.27017C2.66651 10.8222 2.65179 11.2878 2.65179 15.2173C2.65179 19.1468 2.66651 19.6124 2.73742 21.1644C2.80298 22.6 3.04247 23.3787 3.2445 23.8978C3.47997 24.536 3.85593 25.1154 4.34428 25.5903C4.81925 26.0787 5.39857 26.4546 6.03677 26.6901C6.55589 26.8921 7.33457 27.1316 8.77017 27.1972C10.3222 27.2681 10.7864 27.2828 14.7173 27.2828C18.6482 27.2828 19.1124 27.2681 20.6644 27.1972C22.1 27.1316 22.8787 26.8921 23.3978 26.6901C24.0842 26.4225 24.5752 26.1054 25.0903 25.5903C25.5787 25.1154 25.9546 24.536 26.1901 23.8978C26.3921 23.3787 26.6316 22.6 26.6972 21.1644C26.7681 19.6124 26.7828 19.1468 26.7828 15.2173C26.7828 11.2878 26.7681 10.8222 26.6972 9.27017C26.6316 7.83457 26.3921 7.05589 26.1901 6.53677C25.9225 5.85041 25.6054 5.35939 25.0903 4.84428C24.6153 4.35603 24.037 3.98026 23.3978 3.7445C22.8787 3.54247 22.1 3.30298 20.6644 3.23742ZM12.8375 19.7542C13.4426 20.0051 14.0918 20.1323 14.7469 20.1284C15.4019 20.1245 16.0495 19.9895 16.6516 19.7315C17.2537 19.4735 17.7981 19.0977 18.2527 18.6261C18.7074 18.1545 19.063 17.5967 19.2988 16.9855C19.5346 16.3744 19.6457 15.7222 19.6255 15.0675C19.6054 14.4127 19.4545 13.7686 19.1817 13.1731C18.9089 12.5776 18.5196 12.0427 18.0369 11.5999C17.5542 11.157 16.9878 10.8153 16.371 10.5947C15.1646 10.1633 13.8373 10.2205 12.6725 10.7542C11.5077 11.2878 10.5976 12.2556 10.1365 13.4509C9.67533 14.6463 9.69968 15.9746 10.2043 17.1522C10.709 18.3299 11.6539 19.2637 12.8375 19.7542ZM9.36823 9.86823C10.0707 9.16578 10.9046 8.60857 11.8224 8.22841C12.7402 7.84824 13.7239 7.65257 14.7173 7.65257C15.7107 7.65257 16.6944 7.84824 17.6122 8.2284C18.53 8.60857 19.3639 9.16578 20.0664 9.86823C20.7688 10.5707 21.326 11.4046 21.7062 12.3224C22.0864 13.2402 22.282 14.2239 22.282 15.2173C22.282 16.2107 22.0864 17.1944 21.7062 18.1122C21.326 19.03 20.7688 19.8639 20.0664 20.5664C18.6477 21.985 16.7236 22.782 14.7173 22.782C12.711 22.782 10.7869 21.985 9.36823 20.5664C7.94957 19.1477 7.15258 17.2236 7.15258 15.2173C7.15258 13.211 7.94957 11.2869 9.36823 9.86823ZM23.9598 8.77915C24.3047 8.45376 24.5062 8.00468 24.52 7.53071C24.5338 7.05674 24.3587 6.5967 24.0334 6.25179C23.708 5.90688 23.2589 5.70536 22.7849 5.69156C22.3109 5.67776 21.8509 5.85281 21.506 6.1782C21.1611 6.50359 20.9596 6.95267 20.9458 7.42664C20.932 7.90062 21.107 8.36066 21.4324 8.70557C21.7578 9.05047 22.2069 9.25199 22.6808 9.26579C23.1548 9.27959 23.6149 9.10454 23.9598 8.77915Z" fill="white"/>
</g>
<defs>
<clipPath id="clip0_10296_75">
<rect width="29.4346" height="29.4346" fill="white" transform="translate(0 0.5)"/>
</clipPath>
</defs>
</svg>
