<svg width="30" height="30" viewBox="0 0 30 30" fill="none" xmlns="http://www.w3.org/2000/svg">
<g clip-path="url(#clip0_10296_81)">
<path fill-rule="evenodd" clip-rule="evenodd" d="M11.1151 10.7569H16.5811V13.4796C17.3685 11.9137 19.3877 10.5067 22.421 10.5067C28.2358 10.5067 29.6162 13.6239 29.6162 19.343V29.935H23.7293V20.6455C23.7293 17.3885 22.9419 15.5518 20.9375 15.5518C18.1574 15.5518 17.002 17.5313 17.002 20.644V29.935H11.1151V10.7569ZM1.02053 29.6848H6.90745V10.5067H1.02053V29.6848ZM7.75075 4.25334C7.75097 4.74678 7.65311 5.23533 7.46286 5.69062C7.27261 6.1459 6.99377 6.55883 6.64254 6.9054C5.92942 7.60934 4.96779 8.00417 3.96576 8.00445C2.96373 8.00472 2.00189 7.61042 1.28838 6.90687C0.938421 6.55912 0.660521 6.14573 0.470606 5.69039C0.28069 5.23505 0.182493 4.7467 0.181641 4.25334C0.181641 3.25698 0.579008 2.3033 1.28985 1.59981C2.0018 0.894036 2.96371 0.498047 3.9662 0.498047C4.96869 0.498047 5.93059 0.894036 6.64254 1.59981C7.35191 2.3033 7.75075 3.25698 7.75075 4.25334Z" fill="white"/>
</g>
<defs>
<clipPath id="clip0_10296_81">
<rect width="29.4346" height="29.4346" fill="white" transform="translate(0.181641 0.5)"/>
</clipPath>
</defs>
</svg>
