<svg width="39" height="36" viewBox="0 0 39 36" fill="none" xmlns="http://www.w3.org/2000/svg">
<g clip-path="url(#clip0_9113_18890)">
<path d="M10.7958 25.1063C11.2049 24.9964 11.6446 25.0407 12.0182 25.2294C12.3918 25.4182 12.6687 25.736 12.788 26.113C12.9073 26.4899 12.8593 26.895 12.6544 27.2393C12.4495 27.5835 12.1046 27.8387 11.6955 27.9486C10.8922 28.1648 10.3138 28.3928 9.94269 28.6C10.3251 28.8117 10.9292 29.0486 11.7678 29.2692C13.6235 29.7577 16.2792 30.0804 19.2788 30.0804C22.2784 30.0804 24.9341 29.7577 26.7898 29.2692C27.63 29.0486 28.2325 28.8117 28.6149 28.6C28.2454 28.3928 27.667 28.1648 26.8637 27.9486C26.4611 27.8339 26.1235 27.5779 25.9238 27.236C25.7241 26.894 25.6782 26.4934 25.796 26.1206C25.9138 25.7477 26.1859 25.4324 26.5536 25.2427C26.9213 25.053 27.3552 25.004 27.7618 25.1063C28.835 25.395 29.8183 25.7651 30.5734 26.2403C31.2723 26.6829 32.1318 27.4542 32.1318 28.6C32.1318 29.7592 31.2514 30.5364 30.5413 30.979C29.7733 31.4557 28.7691 31.8273 27.6718 32.1159C25.4579 32.7007 22.4921 33.0412 19.2788 33.0412C16.0655 33.0412 13.0997 32.7007 10.8858 32.1159C9.78845 31.8273 8.78431 31.4557 8.01634 30.979C7.30621 30.5349 6.42578 29.7592 6.42578 28.6C6.42578 27.4542 7.28533 26.6829 7.98421 26.2403C8.73932 25.7651 9.72258 25.395 10.7958 25.1063ZM19.2788 3.43335C22.4746 3.43335 25.5395 4.60312 27.7992 6.68533C30.059 8.76753 31.3285 11.5916 31.3285 14.5363C31.3285 18.3379 29.0792 21.429 26.7496 23.6259C25.8236 24.4903 24.8284 25.2895 23.7725 26.0167C22.8182 26.677 20.6364 27.9146 20.6364 27.9146C20.2226 28.1313 19.7548 28.2453 19.2788 28.2453C18.8028 28.2453 18.335 28.1313 17.9212 27.9146C16.838 27.3368 15.7909 26.7031 14.7851 26.0167C13.7288 25.29 12.7336 24.4908 11.808 23.6259C9.47837 21.429 7.22909 18.3379 7.22909 14.5363C7.22909 11.5916 8.49861 8.76753 10.7584 6.68533C13.0181 4.60312 16.083 3.43335 19.2788 3.43335ZM19.2788 6.39413C16.9352 6.39413 14.6876 7.25197 13.0305 8.77892C11.3733 10.3059 10.4423 12.3769 10.4423 14.5363C10.4423 17.2247 12.0425 19.6111 14.1055 21.5533C15.6575 23.016 17.3669 24.1292 18.551 24.8132L19.2788 25.2188L20.0066 24.8132C21.1891 24.1292 22.9001 23.016 24.4521 21.5548C26.515 19.6111 28.1152 17.2262 28.1152 14.5363C28.1152 12.3769 27.1843 10.3059 25.5271 8.77892C23.87 7.25197 21.6224 6.39413 19.2788 6.39413ZM19.2788 10.0951C19.9118 10.0951 20.5385 10.21 21.1233 10.4332C21.7081 10.6564 22.2394 10.9835 22.687 11.3959C23.1345 11.8083 23.4896 12.2979 23.7318 12.8367C23.974 13.3756 24.0987 13.9531 24.0987 14.5363C24.0987 15.1195 23.974 15.697 23.7318 16.2359C23.4896 16.7747 23.1345 17.2643 22.687 17.6767C22.2394 18.0891 21.7081 18.4162 21.1233 18.6394C20.5385 18.8626 19.9118 18.9775 19.2788 18.9775C18.0005 18.9775 16.7745 18.5096 15.8706 17.6767C14.9667 16.8438 14.4589 15.7142 14.4589 14.5363C14.4589 13.3584 14.9667 12.2288 15.8706 11.3959C16.7745 10.563 18.0005 10.0951 19.2788 10.0951ZM19.2788 13.0559C18.8527 13.0559 18.444 13.2119 18.1427 13.4895C17.8414 13.7671 17.6722 14.1437 17.6722 14.5363C17.6722 14.9289 17.8414 15.3055 18.1427 15.5831C18.444 15.8607 18.8527 16.0167 19.2788 16.0167C19.7049 16.0167 20.1136 15.8607 20.4149 15.5831C20.7162 15.3055 20.8854 14.9289 20.8854 14.5363C20.8854 14.1437 20.7162 13.7671 20.4149 13.4895C20.1136 13.2119 19.7049 13.0559 19.2788 13.0559Z" fill="#034703"/>
</g>
<defs>
<clipPath id="clip0_9113_18890">
<rect width="38.5591" height="35.5294" fill="white" transform="translate(0 0.472412)"/>
</clipPath>
</defs>
</svg>
