<svg width="22" height="24" viewBox="0 0 22 24" fill="none" xmlns="http://www.w3.org/2000/svg">
<path d="M7.25 10.5211C7.25 11.468 7.64508 12.3762 8.34835 13.0458C9.05161 13.7154 10.0054 14.0916 11 14.0916C11.9946 14.0916 12.9484 13.7154 13.6516 13.0458C14.3549 12.3762 14.75 11.468 14.75 10.5211C14.75 9.5741 14.3549 8.66593 13.6516 7.99633C12.9484 7.32673 11.9946 6.95055 11 6.95055C10.0054 6.95055 9.05161 7.32673 8.34835 7.99633C7.64508 8.66593 7.25 9.5741 7.25 10.5211Z" stroke="#034703" stroke-width="2" stroke-linecap="round" stroke-linejoin="round"/>
<path d="M18.0712 17.2538L12.7675 22.3037C12.2987 22.7495 11.6632 23 11.0006 23C10.338 23 9.70252 22.7495 9.23375 22.3037L3.92875 17.2538C2.53028 15.9222 1.57792 14.2256 1.19211 12.3787C0.806304 10.5317 1.00437 8.61734 1.76126 6.87757C2.51815 5.1378 3.79987 3.6508 5.44435 2.6046C7.08883 1.5584 9.02221 1 11 1C12.9778 1 14.9112 1.5584 16.5556 2.6046C18.2001 3.6508 19.4819 5.1378 20.2387 6.87757C20.9956 8.61734 21.1937 10.5317 20.8079 12.3787C20.4221 14.2256 19.4697 15.9222 18.0712 17.2538Z" stroke="#034703" stroke-width="2" stroke-linecap="round" stroke-linejoin="round"/>
</svg>
