<svg width="28" height="28" viewBox="0 0 28 28" fill="none" xmlns="http://www.w3.org/2000/svg">
<path fill-rule="evenodd" clip-rule="evenodd" d="M13.7411 2.35645C16.4748 2.35645 19.0966 3.44241 21.0296 5.37544C22.9626 7.30848 24.0486 9.93023 24.0486 12.664C24.0486 16.1845 22.1291 19.0661 20.1066 21.1333C19.096 22.1549 17.9934 23.0812 16.8127 23.9003L16.3248 24.2324L16.0958 24.3847L15.664 24.6596L15.2792 24.8944L14.8028 25.1715C14.4794 25.3561 14.1135 25.4532 13.7411 25.4532C13.3687 25.4532 13.0028 25.3561 12.6794 25.1715L12.203 24.8944L11.6074 24.5279L11.3876 24.3847L10.918 24.0721C9.64425 23.2103 8.45782 22.226 7.37564 21.1333C5.35308 19.0649 3.43359 16.1845 3.43359 12.664C3.43359 9.93023 4.51956 7.30848 6.45259 5.37544C8.38562 3.44241 11.0074 2.35645 13.7411 2.35645ZM13.7411 4.647C11.6149 4.647 9.57573 5.49164 8.07226 6.99511C6.56879 8.49858 5.72415 10.5377 5.72415 12.664C5.72415 15.3233 7.18094 17.6574 9.01224 19.531C9.79966 20.3281 10.6507 21.0597 11.5571 21.7185L12.0816 22.0919C12.2511 22.2102 12.4141 22.3202 12.5706 22.4217L13.0173 22.708L13.4101 22.9474L13.7411 23.141L14.2622 22.8329L14.6825 22.5695C14.9062 22.4275 15.1456 22.2683 15.4006 22.0919L15.9251 21.7185C16.8315 21.0597 17.6825 20.3281 18.47 19.531C20.3013 17.6585 21.758 15.3233 21.758 12.664C21.758 10.5377 20.9134 8.49858 19.4099 6.99511C17.9065 5.49164 15.8673 4.647 13.7411 4.647ZM13.7411 8.08284C14.9561 8.08284 16.1213 8.56549 16.9804 9.42461C17.8396 10.2837 18.3222 11.449 18.3222 12.664C18.3222 13.8789 17.8396 15.0442 16.9804 15.9033C16.1213 16.7624 14.9561 17.2451 13.7411 17.2451C12.5261 17.2451 11.3609 16.7624 10.5018 15.9033C9.64264 15.0442 9.15999 13.8789 9.15999 12.664C9.15999 11.449 9.64264 10.2837 10.5018 9.42461C11.3609 8.56549 12.5261 8.08284 13.7411 8.08284ZM13.7411 10.3734C13.1336 10.3734 12.551 10.6147 12.1214 11.0443C11.6919 11.4738 11.4505 12.0565 11.4505 12.664C11.4505 13.2714 11.6919 13.8541 12.1214 14.2836C12.551 14.7132 13.1336 14.9545 13.7411 14.9545C14.3486 14.9545 14.9312 14.7132 15.3608 14.2836C15.7903 13.8541 16.0317 13.2714 16.0317 12.664C16.0317 12.0565 15.7903 11.4738 15.3608 11.0443C14.9312 10.6147 14.3486 10.3734 13.7411 10.3734Z" fill="white"/>
</svg>
