<svg width="28" height="29" viewBox="0 0 28 29" fill="none" xmlns="http://www.w3.org/2000/svg">
<path d="M17.181 13.5545C17.4848 13.5545 17.7761 13.4338 17.9908 13.219C18.2056 13.0042 18.3263 12.7129 18.3263 12.4092C18.3263 12.1054 18.2056 11.8141 17.9908 11.5994C17.7761 11.3846 17.4848 11.2639 17.181 11.2639C16.8773 11.2639 16.586 11.3846 16.3712 11.5994C16.1564 11.8141 16.0357 12.1054 16.0357 12.4092C16.0357 12.7129 16.1564 13.0042 16.3712 13.219C16.586 13.4338 16.8773 13.5545 17.181 13.5545ZM11.4546 12.4092C11.4546 12.7129 11.334 13.0042 11.1192 13.219C10.9044 13.4338 10.6131 13.5545 10.3093 13.5545C10.0056 13.5545 9.71429 13.4338 9.49951 13.219C9.28473 13.0042 9.16406 12.7129 9.16406 12.4092C9.16406 12.1054 9.28473 11.8141 9.49951 11.5994C9.71429 11.3846 10.0056 11.2639 10.3093 11.2639C10.6131 11.2639 10.9044 11.3846 11.1192 11.5994C11.334 11.8141 11.4546 12.1054 11.4546 12.4092Z" fill="white"/>
<path fill-rule="evenodd" clip-rule="evenodd" d="M9.44913 6.99883V6.68273C9.44913 5.54368 9.90161 4.45129 10.707 3.64586C11.5125 2.84043 12.6049 2.38794 13.7439 2.38794C14.883 2.38794 15.9754 2.84043 16.7808 3.64586C17.5862 4.45129 18.0387 5.54368 18.0387 6.68273V6.99883C18.7923 7.02174 19.4646 7.06411 20.0601 7.13855C21.4356 7.31264 22.55 7.67684 23.4101 8.51747C23.6972 8.79844 23.9506 9.10767 24.1705 9.44515C24.8256 10.453 24.9654 11.6166 24.8657 13.0001C24.7672 14.3538 24.4282 16.0534 23.9965 18.21L23.9735 18.3188C23.6758 19.8156 23.4376 21.0067 23.1421 21.9447C22.8386 22.909 22.4503 23.6901 21.8021 24.3223C21.5784 24.5399 21.3379 24.7369 21.0806 24.9133C20.3339 25.4252 19.4921 25.652 18.4865 25.7608C17.5096 25.8661 16.2956 25.8661 14.7689 25.8661H12.7189C11.1922 25.8661 9.97824 25.8661 9.00132 25.7608C7.99577 25.652 7.15399 25.4252 6.40727 24.9133C6.15109 24.7362 5.90978 24.5386 5.68574 24.3223C5.03751 23.6901 4.64926 22.909 4.34576 21.9447C4.05143 21.0067 3.81321 19.8156 3.51315 18.3188L3.49139 18.21C3.06076 16.0534 2.72061 14.3538 2.62327 13.0001C2.52248 11.6166 2.6622 10.453 3.3173 9.44515C3.5362 9.10911 3.7912 8.79803 4.07777 8.51747C4.93902 7.67684 6.05223 7.31264 7.42771 7.13855C8.02325 7.06411 8.69553 7.02174 9.44913 6.99883ZM11.167 6.68273C11.167 5.9993 11.4385 5.34386 11.9218 4.86061C12.4051 4.37735 13.0605 4.10586 13.7439 4.10586C14.4273 4.10586 15.0828 4.37735 15.566 4.86061C16.0493 5.34386 16.3208 5.9993 16.3208 6.68273V6.97134C15.8352 6.96982 15.3221 6.96905 14.7815 6.96905H12.7074C12.1661 6.96905 11.6526 6.96982 11.167 6.97134V6.68273ZM5.27802 9.74635C5.75331 9.28252 6.43246 8.9962 7.64302 8.84273C8.86847 8.68812 10.4948 8.68697 12.7693 8.68697H14.7197C16.9942 8.68697 18.6182 8.68812 19.8448 8.84273C21.0554 8.9962 21.7345 9.28252 22.2098 9.74635C22.406 9.93876 22.5794 10.1503 22.7298 10.3808C23.0917 10.9374 23.2394 11.6601 23.1524 12.8775C23.063 14.1099 22.7458 15.7029 22.3003 17.9339C21.9888 19.4904 21.7677 20.591 21.5032 21.4282C21.2455 22.2494 20.9706 22.7338 20.603 23.0923C20.4505 23.2407 20.2858 23.3759 20.1105 23.4966C19.6868 23.7863 19.1576 23.9604 18.3021 24.0532C17.4283 24.1471 16.3059 24.1482 14.7186 24.1482H12.7704C11.1831 24.1482 10.0607 24.1471 9.18571 24.0532C8.33133 23.9615 7.80336 23.7863 7.37961 23.4966C7.20392 23.3756 7.03879 23.24 6.88599 23.0911C6.51836 22.7338 6.24464 22.2494 5.9858 21.4282C5.72239 20.5898 5.50021 19.4904 5.18983 17.9339C4.74318 15.7029 4.42593 14.1087 4.33775 12.8764C4.24956 11.6601 4.3973 10.9374 4.75921 10.3808C4.909 10.1511 5.08334 9.93836 5.27917 9.74635" fill="white"/>
</svg>
