<svg width="258" height="295" viewBox="0 0 258 295" fill="none" xmlns="http://www.w3.org/2000/svg">
<g filter="url(#filter0_d_9113_7204)">
<circle cx="125" cy="134.623" r="120.719" fill="#034703"/>
</g>
<g filter="url(#filter1_i_9113_7204)">
<circle cx="124.366" cy="135.257" r="108.71" fill="white"/>
</g>
<path d="M124.613 31.1445L124.613 46.717" stroke="#034703" stroke-width="2.83137" stroke-linecap="round"/>
<path d="M124.613 223.676L124.613 239.248" stroke="#034703" stroke-width="2.83137" stroke-linecap="round"/>
<path d="M230.086 135.197H214.513" stroke="#034703" stroke-width="2.83137" stroke-linecap="round"/>
<path d="M36.8398 135.197H21.2673" stroke="#034703" stroke-width="2.83137" stroke-linecap="round"/>
<path d="M60.0938 79.2793L48.1645 69.2695" stroke="#034703" stroke-width="2.83137" stroke-linecap="round"/>
<path d="M60.0938 192.631L48.1645 202.641" stroke="#034703" stroke-width="2.83137" stroke-linecap="round"/>
<path d="M200.25 69.3672L188.321 79.377" stroke="#034703" stroke-width="2.83137" stroke-linecap="round"/>
<path d="M200.25 202.543L188.321 192.533" stroke="#034703" stroke-width="2.83137" stroke-linecap="round"/>
<g filter="url(#filter2_d_9113_7204)">
<circle cx="124.366" cy="135.253" r="64.4676" fill="#034703"/>
</g>
<rect x="107.625" width="34.1299" height="20.2251" rx="6.32035" fill="#034703"/>
<rect x="211.297" y="36.582" width="16.4329" height="20.2251" rx="3.79221" transform="rotate(45.2949 211.297 36.582)" fill="#034703"/>
<rect x="37.3555" y="244.744" width="176.944" height="49.6104" rx="24.8052" fill="#034703"/>
<path d="M80.8016 277.814C79.0906 277.814 77.5119 277.417 76.0654 276.623C74.6367 275.812 73.4989 274.692 72.6522 273.263C71.8232 271.817 71.4087 270.194 71.4087 268.395C71.4087 266.596 71.8232 264.982 72.6522 263.553C73.4989 262.124 74.6367 261.013 76.0654 260.219C77.5119 259.408 79.0906 259.002 80.8016 259.002C82.5302 259.002 84.1089 259.408 85.5377 260.219C86.9841 261.013 88.1219 262.124 88.9509 263.553C89.78 264.982 90.1945 266.596 90.1945 268.395C90.1945 270.194 89.78 271.817 88.9509 273.263C88.1219 274.692 86.9841 275.812 85.5377 276.623C84.1089 277.417 82.5302 277.814 80.8016 277.814ZM80.8016 275.195C82.0187 275.195 83.1035 274.921 84.056 274.374C85.0085 273.81 85.7494 273.016 86.2786 271.993C86.8254 270.952 87.0988 269.753 87.0988 268.395C87.0988 267.037 86.8254 265.846 86.2786 264.823C85.7494 263.8 85.0085 263.015 84.056 262.468C83.1035 261.921 82.0187 261.648 80.8016 261.648C79.5845 261.648 78.4997 261.921 77.5471 262.468C76.5946 263.015 75.8449 263.8 75.2981 264.823C74.7689 265.846 74.5044 267.037 74.5044 268.395C74.5044 269.753 74.7689 270.952 75.2981 271.993C75.8449 273.016 76.5946 273.81 77.5471 274.374C78.4997 274.921 79.5845 275.195 80.8016 275.195ZM100.518 262.812C101.665 262.812 102.688 263.05 103.587 263.526C104.505 264.003 105.219 264.708 105.731 265.643C106.242 266.578 106.498 267.707 106.498 269.03V277.629H103.508V269.48C103.508 268.174 103.182 267.178 102.529 266.49C101.876 265.784 100.986 265.431 99.8567 265.431C98.7278 265.431 97.8282 265.784 97.1579 266.49C96.5053 267.178 96.179 268.174 96.179 269.48V277.629H93.1626V263.05H96.179V264.717C96.6729 264.117 97.299 263.65 98.0575 263.315C98.8337 262.979 99.6539 262.812 100.518 262.812ZM129.099 259.24V261.701H124.204V277.629H121.187V261.701H116.266V259.24H129.099ZM133.688 261.119C133.141 261.119 132.683 260.933 132.312 260.563C131.942 260.192 131.756 259.734 131.756 259.187C131.756 258.64 131.942 258.182 132.312 257.811C132.683 257.441 133.141 257.256 133.688 257.256C134.217 257.256 134.667 257.441 135.037 257.811C135.408 258.182 135.593 258.64 135.593 259.187C135.593 259.734 135.408 260.192 135.037 260.563C134.667 260.933 134.217 261.119 133.688 261.119ZM135.17 263.05V277.629H132.153V263.05H135.17ZM156.778 262.812C157.924 262.812 158.948 263.05 159.847 263.526C160.764 264.003 161.479 264.708 161.99 265.643C162.519 266.578 162.784 267.707 162.784 269.03V277.629H159.794V269.48C159.794 268.174 159.468 267.178 158.815 266.49C158.163 265.784 157.272 265.431 156.143 265.431C155.014 265.431 154.114 265.784 153.444 266.49C152.791 267.178 152.465 268.174 152.465 269.48V277.629H149.475V269.48C149.475 268.174 149.149 267.178 148.496 266.49C147.844 265.784 146.953 265.431 145.824 265.431C144.695 265.431 143.795 265.784 143.125 266.49C142.472 267.178 142.146 268.174 142.146 269.48V277.629H139.13V263.05H142.146V264.717C142.64 264.117 143.266 263.65 144.025 263.315C144.783 262.979 145.595 262.812 146.459 262.812C147.623 262.812 148.664 263.059 149.581 263.553C150.498 264.047 151.204 264.761 151.698 265.696C152.139 264.814 152.827 264.117 153.762 263.606C154.696 263.077 155.702 262.812 156.778 262.812ZM179.984 269.982C179.984 270.529 179.949 271.023 179.878 271.464H168.739C168.827 272.628 169.259 273.563 170.035 274.269C170.812 274.974 171.764 275.327 172.893 275.327C174.516 275.327 175.662 274.648 176.333 273.29H179.587C179.146 274.63 178.344 275.733 177.179 276.597C176.033 277.444 174.604 277.867 172.893 277.867C171.5 277.867 170.247 277.558 169.136 276.941C168.042 276.306 167.178 275.424 166.543 274.295C165.926 273.149 165.617 271.826 165.617 270.326C165.617 268.827 165.917 267.513 166.516 266.384C167.134 265.237 167.989 264.355 169.083 263.738C170.194 263.121 171.464 262.812 172.893 262.812C174.269 262.812 175.495 263.112 176.571 263.712C177.647 264.311 178.485 265.158 179.084 266.252C179.684 267.328 179.984 268.571 179.984 269.982ZM176.835 269.03C176.818 267.918 176.421 267.028 175.645 266.357C174.869 265.687 173.907 265.352 172.761 265.352C171.72 265.352 170.829 265.687 170.088 266.357C169.348 267.01 168.907 267.901 168.765 269.03H176.835Z" fill="white"/>
<defs>
<filter id="filter0_d_9113_7204" x="0.109816" y="9.73286" width="257.365" height="257.365" filterUnits="userSpaceOnUse" color-interpolation-filters="sRGB">
<feFlood flood-opacity="0" result="BackgroundImageFix"/>
<feColorMatrix in="SourceAlpha" type="matrix" values="0 0 0 0 0 0 0 0 0 0 0 0 0 0 0 0 0 0 127 0" result="hardAlpha"/>
<feOffset dx="3.79221" dy="3.79221"/>
<feGaussianBlur stdDeviation="3.98182"/>
<feComposite in2="hardAlpha" operator="out"/>
<feColorMatrix type="matrix" values="0 0 0 0 0 0 0 0 0 0 0 0 0 0 0 0 0 0 0.25 0"/>
<feBlend mode="normal" in2="BackgroundImageFix" result="effect1_dropShadow_9113_7204"/>
<feBlend mode="normal" in="SourceGraphic" in2="effect1_dropShadow_9113_7204" result="shape"/>
</filter>
<filter id="filter1_i_9113_7204" x="15.6562" y="26.5469" width="217.422" height="225.005" filterUnits="userSpaceOnUse" color-interpolation-filters="sRGB">
<feFlood flood-opacity="0" result="BackgroundImageFix"/>
<feBlend mode="normal" in="SourceGraphic" in2="BackgroundImageFix" result="shape"/>
<feColorMatrix in="SourceAlpha" type="matrix" values="0 0 0 0 0 0 0 0 0 0 0 0 0 0 0 0 0 0 127 0" result="hardAlpha"/>
<feOffset dy="7.58442"/>
<feGaussianBlur stdDeviation="5.4355"/>
<feComposite in2="hardAlpha" operator="arithmetic" k2="-1" k3="1"/>
<feColorMatrix type="matrix" values="0 0 0 0 0 0 0 0 0 0 0 0 0 0 0 0 0 0 0.25 0"/>
<feBlend mode="normal" in2="shape" result="effect1_innerShadow_9113_7204"/>
</filter>
<filter id="filter2_d_9113_7204" x="50.2915" y="63.7064" width="148.147" height="148.149" filterUnits="userSpaceOnUse" color-interpolation-filters="sRGB">
<feFlood flood-opacity="0" result="BackgroundImageFix"/>
<feColorMatrix in="SourceAlpha" type="matrix" values="0 0 0 0 0 0 0 0 0 0 0 0 0 0 0 0 0 0 127 0" result="hardAlpha"/>
<feOffset dy="2.52814"/>
<feGaussianBlur stdDeviation="4.80347"/>
<feComposite in2="hardAlpha" operator="out"/>
<feColorMatrix type="matrix" values="0 0 0 0 0 0 0 0 0 0 0 0 0 0 0 0 0 0 0.25 0"/>
<feBlend mode="normal" in2="BackgroundImageFix" result="effect1_dropShadow_9113_7204"/>
<feBlend mode="normal" in="SourceGraphic" in2="effect1_dropShadow_9113_7204" result="shape"/>
</filter>
</defs>
</svg>
