<svg width="36" height="30" viewBox="0 0 36 30" fill="none" xmlns="http://www.w3.org/2000/svg">
<g clip-path="url(#clip0_10296_77)">
<path d="M35.2185 5.55539C33.99 6.09976 32.6702 6.46758 31.2828 6.63384C32.7149 5.77751 33.7865 4.42931 34.2975 2.84087C32.952 3.63992 31.4795 4.20225 29.9439 4.50342C28.9117 3.40123 27.5444 2.67068 26.0543 2.42519C24.5643 2.17971 23.0349 2.43302 21.7036 3.1458C20.3723 3.85858 19.3136 4.99095 18.6918 6.3671C18.07 7.74325 17.9199 9.2862 18.2649 10.7564C15.5401 10.619 12.8747 9.91047 10.4414 8.6766C8.00816 7.44274 5.86146 5.71115 4.14055 3.59417C3.26276 5.10299 2.99353 6.88982 3.38776 8.59031C3.78199 10.2908 4.80999 11.7769 6.26214 12.7456C5.1738 12.7109 4.10947 12.4168 3.15774 11.8878V11.9761C3.15763 13.5588 3.7051 15.0928 4.70727 16.3178C5.70943 17.5428 7.10456 18.3834 8.65592 18.6969C7.64584 18.9704 6.5868 19.0106 5.55887 18.8146C5.99666 20.1767 6.84948 21.3677 7.99793 22.2209C9.14637 23.0742 10.5329 23.5468 11.9634 23.5727C9.53511 25.479 6.53614 26.5128 3.44905 26.5079C2.90278 26.508 2.35698 26.4761 1.81445 26.4123C4.94752 28.4268 8.59463 29.4959 12.3194 29.4917C24.9283 29.4917 31.8213 19.0485 31.8213 9.99131C31.8213 9.69705 31.8139 9.39985 31.8007 9.1056C33.1415 8.13598 34.2988 6.9353 35.2185 5.5598L35.2214 5.55539H35.2185Z" fill="white"/>
</g>
<defs>
<clipPath id="clip0_10296_77">
<rect width="35.3108" height="29.4257" fill="white" transform="translate(0.435547 0.5)"/>
</clipPath>
</defs>
</svg>
